<?xml version="1.0" standalone="no"?>
<!DOCTYPE svg PUBLIC "-//W3C//DTD SVG 20010904//EN"
 "http://www.w3.org/TR/2001/REC-SVG-20010904/DTD/svg10.dtd">
<svg version="1.0" xmlns="http://www.w3.org/2000/svg"
 width="851.000000pt" height="851.000000pt" viewBox="0 0 851.000000 851.000000"
 preserveAspectRatio="xMidYMid meet">
<metadata>
Created by potrace 1.11, written by Peter Selinger 2001-2013
</metadata>
<g transform="translate(0.000000,851.000000) scale(0.100000,-0.100000)"
fill="#000000" stroke="none">
<path d="M2837 8026 c-64 -23 -109 -67 -140 -136 -18 -40 -20 -65 -20 -237 1
-180 2 -194 24 -238 29 -59 90 -112 146 -128 28 -8 109 -12 235 -12 193 1 193
1 246 30 28 15 63 43 77 61 47 61 52 94 51 304 -1 178 -3 198 -23 235 -26 49
-65 86 -119 113 -36 18 -60 20 -240 21 -144 0 -209 -3 -237 -13z"/>
<path d="M5108 8026 c-52 -19 -82 -40 -112 -79 -48 -62 -54 -97 -52 -302 2
-174 4 -193 23 -230 29 -54 65 -91 116 -117 39 -20 56 -22 247 -22 187 0 209
2 251 21 53 24 92 61 121 118 19 36 22 58 23 223 0 108 -4 200 -11 227 -15 61
-60 114 -124 148 -52 27 -53 27 -249 27 -137 -1 -207 -5 -233 -14z"/>
<path d="M1648 6967 c-30 -14 -62 -50 -73 -86 -4 -14 -8 -232 -8 -486 0 -488
0 -478 46 -537 24 -31 60 -36 248 -36 102 0 212 -4 245 -7 128 -15 261 -83
353 -180 56 -61 126 -177 135 -228 2 -15 8 -32 13 -39 4 -7 9 -189 9 -405 2
-360 3 -395 20 -429 11 -21 32 -47 47 -58 27 -20 42 -21 349 -21 367 -1 368 0
406 75 l23 45 -3 470 c-3 512 -2 502 -62 543 -31 21 -41 22 -258 22 -281 0
-336 11 -476 97 -53 32 -157 149 -186 208 -63 129 -65 150 -66 567 -1 410 -2
419 -55 468 l-27 25 -326 2 c-235 1 -335 -1 -354 -10z"/>
<path d="M2860 6790 c-73 -21 -130 -70 -162 -140 -19 -41 -21 -63 -21 -236 1
-215 9 -250 75 -312 69 -66 73 -67 303 -69 202 -3 212 -2 261 21 60 28 118 94
132 151 6 22 10 126 9 230 -3 214 -7 229 -80 298 -59 55 -109 66 -317 65 -96
-1 -186 -4 -200 -8z"/>
<path d="M3979 6784 c-51 -15 -117 -73 -146 -126 -15 -29 -18 -60 -18 -238 0
-196 1 -207 24 -250 29 -57 54 -82 111 -111 43 -23 55 -24 245 -25 112 -1 213
3 230 9 59 20 114 69 142 126 27 55 28 58 27 251 0 217 -5 239 -70 304 -65 65
-87 70 -304 73 -145 1 -207 -2 -241 -13z"/>
<path d="M5133 6790 c-53 -12 -118 -57 -147 -100 -37 -56 -46 -118 -43 -310 2
-153 4 -169 27 -214 57 -112 122 -136 370 -136 207 0 251 10 315 74 63 63 71
103 70 329 l-2 192 -28 45 c-33 53 -56 75 -110 103 -36 19 -58 21 -230 23
-104 1 -204 -2 -222 -6z"/>
<path d="M6213 6778 c-63 -23 -128 -91 -144 -152 -12 -41 -16 -356 -6 -407 12
-63 64 -127 129 -161 41 -22 54 -23 258 -23 201 0 218 1 255 22 52 28 89 68
114 122 17 39 20 68 21 223 0 99 -4 196 -10 218 -15 57 -68 120 -125 149 -48
25 -56 26 -245 28 -172 1 -201 -1 -247 -19z"/>
<path d="M4994 5608 c-36 -10 -55 -27 -75 -73 -17 -36 -19 -74 -19 -415 0
-417 -2 -438 -65 -566 -74 -151 -215 -255 -410 -301 -11 -2 -124 -6 -251 -7
-264 -3 -271 -5 -305 -81 -18 -41 -19 -70 -18 -502 0 -432 2 -460 20 -498 36
-75 35 -75 403 -75 366 0 360 -1 397 72 19 37 20 63 23 431 4 430 3 424 69
556 41 83 150 194 235 239 113 60 167 69 419 71 232 2 253 5 286 45 37 44 39
64 39 532 1 433 0 464 -18 500 -10 21 -32 47 -47 58 -27 20 -41 21 -342 21
-173 0 -326 -3 -341 -7z"/>
<path d="M695 5420 c-104 -9 -181 -64 -217 -154 -15 -40 -17 -73 -15 -244 2
-169 5 -202 20 -231 25 -45 69 -86 120 -113 39 -20 56 -22 247 -22 195 0 208
1 250 23 77 39 122 95 137 169 3 15 5 107 5 205 0 171 -1 179 -26 231 -36 74
-100 122 -178 132 -56 8 -268 10 -343 4z"/>
<path d="M1750 5411 c-79 -24 -148 -90 -169 -163 -17 -56 -17 -370 0 -427 16
-52 69 -115 123 -144 39 -21 53 -22 256 -22 202 0 217 2 256 22 53 28 107 91
122 142 16 51 16 368 0 429 -17 69 -95 144 -166 160 -59 13 -380 15 -422 3z"/>
<path d="M3950 5393 c-61 -30 -106 -82 -124 -143 -17 -57 -19 -362 -3 -417 20
-70 62 -119 132 -156 36 -19 58 -21 235 -23 220 -2 270 8 330 69 67 67 73 93
75 292 2 232 -8 274 -84 343 -61 54 -104 63 -319 62 -183 -2 -193 -3 -242 -27z"/>
<path d="M6226 5406 c-57 -21 -108 -67 -136 -122 -24 -47 -25 -55 -25 -249 0
-197 0 -201 26 -250 28 -53 96 -108 153 -124 17 -4 119 -8 226 -7 214 2 239 8
304 72 64 65 69 89 70 309 0 221 -4 240 -68 309 -62 67 -78 71 -306 73 -157 2
-214 0 -244 -11z"/>
<path d="M7336 5406 c-59 -22 -108 -66 -138 -126 l-28 -53 3 -201 c2 -200 2
-201 30 -248 15 -26 43 -59 62 -74 59 -45 103 -52 315 -50 221 2 243 8 313 85
50 56 58 97 58 300 0 237 -18 286 -126 348 -50 28 -51 28 -250 30 -153 2 -209
0 -239 -11z"/>
<path d="M6116 4225 c-17 -11 -39 -37 -50 -58 -17 -35 -18 -71 -18 -495 -1
-511 1 -521 67 -562 31 -19 49 -20 354 -20 334 0 347 1 383 43 35 39 38 88 38
545 0 434 -1 454 -20 492 -38 75 -33 74 -398 75 -312 1 -327 0 -356 -20z"/>
<path d="M1750 4031 c-76 -20 -149 -90 -171 -163 -5 -18 -10 -114 -11 -213 -1
-166 1 -184 22 -233 24 -57 73 -105 129 -130 43 -19 366 -26 444 -10 66 14
126 62 160 127 27 54 27 58 27 239 0 116 -5 200 -12 226 -18 60 -100 139 -160
154 -49 13 -383 15 -428 3z"/>
<path d="M2834 4024 c-54 -19 -111 -75 -137 -133 -18 -41 -20 -66 -20 -236 1
-211 7 -242 66 -304 62 -65 100 -75 307 -77 225 -3 268 6 333 70 68 66 75 99
73 327 -1 177 -3 197 -23 234 -28 52 -67 89 -123 114 -41 19 -64 21 -240 20
-145 0 -206 -4 -236 -15z"/>
<path d="M5115 4033 c-71 -16 -137 -72 -168 -142 -17 -38 -19 -67 -19 -235 0
-219 9 -253 79 -317 64 -58 93 -64 318 -64 194 0 202 1 249 25 60 31 110 94
125 158 7 28 10 121 8 227 -3 197 -11 227 -74 287 -63 60 -99 68 -308 67 -104
-1 -199 -3 -210 -6z"/>
<path d="M7350 4031 c-69 -22 -121 -65 -156 -131 -17 -31 -19 -59 -19 -245 0
-209 0 -210 26 -255 32 -54 50 -71 109 -101 43 -23 56 -24 247 -25 190 -1 204
0 248 21 60 29 96 64 124 121 21 41 23 58 23 237 1 214 -7 251 -70 313 -65 65
-95 72 -312 72 -107 1 -206 -3 -220 -7z"/>
<path d="M2841 2982 c-38 -6 -70 -32 -92 -73 -18 -36 -19 -62 -19 -501 0 -433
2 -466 19 -505 33 -71 48 -75 325 -78 230 -2 244 -3 315 -28 161 -57 284 -173
348 -330 l25 -62 2 -420 c2 -460 1 -456 63 -504 26 -21 33 -22 364 -19 321 3
338 4 359 23 53 48 54 55 55 420 1 187 4 349 8 360 3 11 9 40 12 65 10 75 25
122 61 191 68 130 180 225 326 277 70 24 83 26 320 28 232 2 249 3 276 23 61
43 62 54 62 564 l0 463 -29 46 c-16 25 -40 49 -53 54 -13 4 -168 7 -346 7
-362 -1 -354 1 -393 -75 -20 -40 -21 -56 -23 -432 -2 -379 -3 -393 -25 -456
-67 -189 -213 -330 -401 -386 -59 -18 -199 -24 -299 -13 -232 25 -420 172
-499 390 l-27 74 -2 385 c-2 212 -4 392 -6 400 -6 31 -37 78 -62 94 -22 15
-64 17 -333 19 -169 1 -318 0 -331 -1z"/>
<path d="M1728 2786 c-52 -19 -82 -40 -112 -79 -47 -62 -53 -97 -52 -302 1
-161 4 -196 19 -226 26 -53 65 -93 117 -120 43 -22 55 -23 245 -24 224 0 264
8 325 68 66 64 74 98 74 317 0 183 -2 198 -23 238 -31 60 -82 107 -138 126
-61 21 -398 22 -455 2z"/>
<path d="M3970 2784 c-54 -23 -97 -61 -127 -112 l-28 -47 0 -205 c0 -195 1
-207 23 -249 31 -58 72 -95 130 -118 40 -15 77 -18 247 -18 l200 0 50 28 c112
64 131 119 129 368 -2 209 -8 234 -75 299 -64 62 -106 71 -325 70 -141 -1
-198 -5 -224 -16z"/>
<path d="M6246 2789 c-65 -15 -122 -62 -157 -129 -22 -43 -24 -55 -24 -245 0
-192 1 -202 24 -247 30 -59 56 -83 118 -113 44 -22 61 -24 238 -25 206 -1 245
6 309 55 18 14 46 49 61 77 29 52 29 55 30 233 2 249 -19 310 -130 372 -49 27
-52 27 -240 29 -104 1 -207 -2 -229 -7z"/>
</g>
</svg>
